<mxfile host="Electron" agent="Mozilla/5.0 (Windows NT 10.0; Win64; x64) AppleWebKit/537.36 (KHTML, like Gecko) draw.io/24.7.5 Chrome/126.0.6478.183 Electron/31.3.0 Safari/537.36" version="24.7.5">
  <diagram name="第 1 页" id="c_gZM-HQwC7K20kNu2SJ">
    <mxGraphModel dx="941" dy="644" grid="1" gridSize="10" guides="1" tooltips="1" connect="1" arrows="1" fold="1" page="1" pageScale="1" pageWidth="827" pageHeight="1169" math="0" shadow="0">
      <root>
        <mxCell id="0" />
        <mxCell id="1" parent="0" />
        <mxCell id="y6_dmDq1Y3ckxx4IdedP-3" style="edgeStyle=orthogonalEdgeStyle;rounded=0;orthogonalLoop=1;jettySize=auto;html=1;exitX=1;exitY=0.5;exitDx=0;exitDy=0;" edge="1" parent="1" source="y6_dmDq1Y3ckxx4IdedP-1" target="y6_dmDq1Y3ckxx4IdedP-2">
          <mxGeometry relative="1" as="geometry" />
        </mxCell>
        <mxCell id="y6_dmDq1Y3ckxx4IdedP-1" value="&lt;font style=&quot;font-size: 14px;&quot;&gt;用户访问&lt;/font&gt;&lt;div style=&quot;font-size: 14px;&quot;&gt;&lt;font style=&quot;font-size: 14px;&quot;&gt;界面失败&lt;/font&gt;&lt;/div&gt;" style="rounded=0;whiteSpace=wrap;html=1;" vertex="1" parent="1">
          <mxGeometry x="70" y="260" width="100" height="50" as="geometry" />
        </mxCell>
        <mxCell id="y6_dmDq1Y3ckxx4IdedP-2" value="&lt;span style=&quot;font-size: 14px;&quot;&gt;404界面&lt;/span&gt;" style="rounded=0;whiteSpace=wrap;html=1;" vertex="1" parent="1">
          <mxGeometry x="260" y="260" width="80" height="51.25" as="geometry" />
        </mxCell>
        <mxCell id="y6_dmDq1Y3ckxx4IdedP-4" value="跳转至" style="text;html=1;align=center;verticalAlign=middle;resizable=0;points=[];autosize=1;strokeColor=none;fillColor=none;" vertex="1" parent="1">
          <mxGeometry x="180" y="260" width="60" height="30" as="geometry" />
        </mxCell>
        <mxCell id="y6_dmDq1Y3ckxx4IdedP-6" value="显示提示信息" style="rounded=0;whiteSpace=wrap;html=1;" vertex="1" parent="1">
          <mxGeometry x="379" y="160" width="91" height="34.37" as="geometry" />
        </mxCell>
        <mxCell id="y6_dmDq1Y3ckxx4IdedP-8" value="" style="shape=curlyBracket;whiteSpace=wrap;html=1;rounded=1;labelPosition=left;verticalLabelPosition=middle;align=right;verticalAlign=middle;" vertex="1" parent="1">
          <mxGeometry x="350" y="175" width="20" height="220" as="geometry" />
        </mxCell>
        <mxCell id="y6_dmDq1Y3ckxx4IdedP-14" style="edgeStyle=orthogonalEdgeStyle;rounded=0;orthogonalLoop=1;jettySize=auto;html=1;exitX=1;exitY=0.5;exitDx=0;exitDy=0;entryX=0;entryY=0.5;entryDx=0;entryDy=0;" edge="1" parent="1" source="y6_dmDq1Y3ckxx4IdedP-10" target="y6_dmDq1Y3ckxx4IdedP-13">
          <mxGeometry relative="1" as="geometry" />
        </mxCell>
        <mxCell id="y6_dmDq1Y3ckxx4IdedP-10" value="显示“返回主页”" style="rounded=0;whiteSpace=wrap;html=1;" vertex="1" parent="1">
          <mxGeometry x="379" y="230" width="91" height="34.37" as="geometry" />
        </mxCell>
        <mxCell id="y6_dmDq1Y3ckxx4IdedP-19" style="edgeStyle=orthogonalEdgeStyle;rounded=0;orthogonalLoop=1;jettySize=auto;html=1;exitX=1;exitY=0.5;exitDx=0;exitDy=0;" edge="1" parent="1" source="y6_dmDq1Y3ckxx4IdedP-11" target="y6_dmDq1Y3ckxx4IdedP-18">
          <mxGeometry relative="1" as="geometry" />
        </mxCell>
        <mxCell id="y6_dmDq1Y3ckxx4IdedP-11" value="显示“关于宠悦”" style="rounded=0;whiteSpace=wrap;html=1;" vertex="1" parent="1">
          <mxGeometry x="379" y="300" width="91" height="34.37" as="geometry" />
        </mxCell>
        <mxCell id="y6_dmDq1Y3ckxx4IdedP-21" style="edgeStyle=orthogonalEdgeStyle;rounded=0;orthogonalLoop=1;jettySize=auto;html=1;exitX=1;exitY=0.5;exitDx=0;exitDy=0;entryX=0;entryY=0.5;entryDx=0;entryDy=0;" edge="1" parent="1" source="y6_dmDq1Y3ckxx4IdedP-12" target="y6_dmDq1Y3ckxx4IdedP-20">
          <mxGeometry relative="1" as="geometry" />
        </mxCell>
        <mxCell id="y6_dmDq1Y3ckxx4IdedP-12" value="显示“联系我们”" style="rounded=0;whiteSpace=wrap;html=1;" vertex="1" parent="1">
          <mxGeometry x="379" y="370" width="91" height="34.37" as="geometry" />
        </mxCell>
        <mxCell id="y6_dmDq1Y3ckxx4IdedP-13" value="跳转到主页" style="rounded=1;whiteSpace=wrap;html=1;" vertex="1" parent="1">
          <mxGeometry x="565" y="227.18" width="90" height="40" as="geometry" />
        </mxCell>
        <mxCell id="y6_dmDq1Y3ckxx4IdedP-18" value="跳转到关于页面" style="rounded=1;whiteSpace=wrap;html=1;" vertex="1" parent="1">
          <mxGeometry x="565" y="295.07" width="100" height="44.23" as="geometry" />
        </mxCell>
        <mxCell id="y6_dmDq1Y3ckxx4IdedP-20" value="跳转到&lt;div&gt;联系我们页面&lt;/div&gt;" style="rounded=1;whiteSpace=wrap;html=1;" vertex="1" parent="1">
          <mxGeometry x="565" y="365.07" width="100" height="44.23" as="geometry" />
        </mxCell>
        <mxCell id="y6_dmDq1Y3ckxx4IdedP-23" value="点击" style="text;html=1;align=center;verticalAlign=middle;resizable=0;points=[];autosize=1;strokeColor=none;fillColor=none;" vertex="1" parent="1">
          <mxGeometry x="490" y="220" width="50" height="30" as="geometry" />
        </mxCell>
        <mxCell id="y6_dmDq1Y3ckxx4IdedP-24" value="点击" style="text;html=1;align=center;verticalAlign=middle;resizable=0;points=[];autosize=1;strokeColor=none;fillColor=none;" vertex="1" parent="1">
          <mxGeometry x="490" y="290" width="50" height="30" as="geometry" />
        </mxCell>
        <mxCell id="y6_dmDq1Y3ckxx4IdedP-25" value="点击" style="text;html=1;align=center;verticalAlign=middle;resizable=0;points=[];autosize=1;strokeColor=none;fillColor=none;" vertex="1" parent="1">
          <mxGeometry x="490" y="360" width="50" height="30" as="geometry" />
        </mxCell>
      </root>
    </mxGraphModel>
  </diagram>
</mxfile>
